<?xml version="1.0" standalone="no"?>
<!DOCTYPE svg PUBLIC "-//W3C//DTD SVG 20010904//EN"
 "http://www.w3.org/TR/2001/REC-SVG-20010904/DTD/svg10.dtd">
<svg version="1.0" xmlns="http://www.w3.org/2000/svg"
 width="512.000000pt" height="512.000000pt" viewBox="0 0 512.000000 512.000000"
 preserveAspectRatio="xMidYMid meet">
<metadata>
Created by potrace 1.11, written by Peter Selinger 2001-2013
</metadata>
<g transform="translate(0.000000,512.000000) scale(0.100000,-0.100000)"
fill="#000000" stroke="none">
<path d="M2980 4089 c-123 -14 -280 -51 -395 -94 -112 -42 -235 -101 -235
-113 0 -8 41 -135 45 -140 2 -2 27 12 56 31 238 152 531 219 848 196 439 -33
669 -232 765 -661 6 -24 11 -28 41 -28 30 0 35 3 35 23 -1 65 -40 578 -45 587
-8 13 -286 103 -430 139 -234 58 -498 81 -685 60z"/>
<path d="M2029 4063 c-6 -16 -219 -620 -474 -1343 -254 -723 -477 -1351 -495
-1395 -43 -110 -70 -153 -128 -207 -47 -44 -82 -60 -177 -81 -11 -3 113 -5
275 -6 162 -1 320 -3 350 -6 l55 -5 -64 15 c-126 29 -161 70 -161 187 0 93 12
137 160 558 67 190 239 684 383 1098 144 413 264 752 267 752 3 0 57 -153 120
-340 l115 -340 33 0 c45 0 83 -22 126 -71 87 -103 93 -283 12 -384 -16 -20
-16 -20 -22 1 -5 20 -10 17 -54 -27 -27 -27 -54 -49 -60 -49 -5 0 -10 -4 -10
-10 0 -21 40 -9 85 26 26 19 48 34 50 32 1 -2 5 -12 9 -24 6 -19 -20 -32 -323
-160 -182 -76 -329 -139 -328 -141 4 -3 638 210 1272 427 302 103 411 136 417
127 4 -6 10 -32 14 -57 3 -25 8 -53 10 -62 4 -12 51 33 171 163 91 99 164 181
162 183 -6 5 -489 32 -489 27 0 -1 11 -17 25 -33 14 -17 32 -42 40 -57 l13
-27 -375 -157 c-206 -87 -377 -156 -380 -153 -5 4 -394 1145 -503 1470 l-32
96 -39 0 c-34 0 -41 -4 -50 -27z"/>
<path d="M2203 2930 c-18 -10 -39 -33 -48 -49 -31 -61 -9 -178 41 -223 35 -31
94 -50 133 -43 37 6 37 6 53 -42 l15 -48 12 28 c6 16 11 49 11 74 l0 46 -25
-23 c-19 -18 -28 -21 -37 -12 -8 8 -4 19 17 43 23 28 26 40 22 75 -6 56 -50
130 -88 150 -17 8 -33 13 -36 10 -3 -3 13 -60 36 -127 22 -68 37 -127 33 -131
-11 -11 -60 7 -86 30 -27 25 -56 86 -62 134 -5 35 -2 48 16 71 12 15 28 27 37
27 15 0 14 21 -3 27 -5 2 -23 -6 -41 -17z"/>
<path d="M1899 2821 c-95 -30 -133 -112 -93 -197 16 -34 58 -64 89 -64 19 0
19 -3 -5 -50 -39 -77 -14 -167 55 -196 119 -50 257 55 230 175 -10 45 -51 89
-96 102 -44 14 -44 14 -24 49 28 50 9 134 -38 165 -31 20 -83 27 -118 16z m61
-36 c55 -28 78 -115 44 -163 -18 -26 -40 -28 -94 -6 -82 33 -95 129 -22 168
34 19 37 19 72 1z m110 -250 c37 -19 65 -89 51 -127 -23 -60 -96 -88 -152 -58
-49 27 -65 127 -28 174 16 20 29 26 60 26 22 0 53 -7 69 -15z"/>
<path d="M2605 2262 c-55 -19 -102 -36 -104 -38 -4 -3 16 -63 151 -459 161
-471 190 -599 152 -664 -22 -37 -46 -50 -118 -66 -56 -12 -41 -13 206 -14
l267 -1 -180 533 c-100 292 -197 580 -217 640 -20 59 -41 106 -47 106 -5 -1
-55 -17 -110 -37z"/>
<path d="M4055 1858 c-2 -7 -11 -41 -20 -75 -51 -204 -194 -420 -342 -519 -77
-51 -198 -92 -311 -106 -53 -6 -98 -13 -100 -14 -2 -1 4 -27 14 -58 17 -54 19
-56 48 -51 230 37 297 50 391 74 107 29 266 82 294 100 10 6 31 112 67 333 30
177 54 324 54 326 0 1 -20 2 -45 2 -28 0 -47 -5 -50 -12z"/>
</g>
</svg>
